<?xml version="1.0" encoding="utf-8"?>
<!-- Generator: Adobe Illustrator 17.0.0, SVG Export Plug-In . SVG Version: 6.00 Build 0)  -->
<!DOCTYPE svg PUBLIC "-//W3C//DTD SVG 1.1//EN" "http://www.w3.org/Graphics/SVG/1.1/DTD/svg11.dtd">
<svg version="1.1" id="Layer_1" xmlns="http://www.w3.org/2000/svg" xmlns:xlink="http://www.w3.org/1999/xlink" x="0px" y="0px"
	 width="1250px" height="230.094px" viewBox="0 0 1250 230.094" enable-background="new 0 0 1250 230.094" xml:space="preserve">
<g>
	<g>
		<line fill="none" stroke="#579FD3" stroke-miterlimit="10" x1="1.524" y1="13.469" x2="1246.853" y2="209.238"/>
		
			<line fill="none" stroke="#579FD3" stroke-width="1.303" stroke-miterlimit="10" x1="1.524" y1="31.676" x2="1246.858" y2="221.513"/>
		
			<line fill="none" stroke="#579FD3" stroke-width="1.6061" stroke-miterlimit="10" x1="1.524" y1="49.883" x2="1246.862" y2="233.788"/>
		
			<line fill="none" stroke="#579FD3" stroke-width="1.9091" stroke-miterlimit="10" x1="1.524" y1="68.09" x2="1246.867" y2="246.063"/>
		
			<line fill="none" stroke="#579FD3" stroke-width="2.2121" stroke-miterlimit="10" x1="1.524" y1="86.297" x2="1246.871" y2="258.337"/>
		
			<line fill="none" stroke="#579FD3" stroke-width="2.5152" stroke-miterlimit="10" x1="1.524" y1="104.504" x2="1246.876" y2="270.612"/>
		
			<line fill="none" stroke="#579FD3" stroke-width="2.8182" stroke-miterlimit="10" x1="1.524" y1="122.711" x2="1246.88" y2="282.887"/>
		
			<line fill="none" stroke="#579FD3" stroke-width="3.1212" stroke-miterlimit="10" x1="1.524" y1="140.918" x2="1246.885" y2="295.161"/>
		
			<line fill="none" stroke="#579FD3" stroke-width="3.4242" stroke-miterlimit="10" x1="1.524" y1="159.125" x2="1246.89" y2="307.436"/>
		
			<line fill="none" stroke="#579FD3" stroke-width="3.7273" stroke-miterlimit="10" x1="1.524" y1="177.332" x2="1246.894" y2="319.711"/>
		
			<line fill="none" stroke="#579FD3" stroke-width="4.0303" stroke-miterlimit="10" x1="1.524" y1="195.54" x2="1246.899" y2="331.985"/>
		
			<line fill="none" stroke="#579FD3" stroke-width="4.3333" stroke-miterlimit="10" x1="1.524" y1="213.747" x2="1246.903" y2="344.26"/>
		
			<line fill="none" stroke="#579FD3" stroke-width="4.6364" stroke-miterlimit="10" x1="1.524" y1="231.954" x2="1246.908" y2="356.535"/>
		
			<line fill="none" stroke="#579FD3" stroke-width="4.9394" stroke-miterlimit="10" x1="1.524" y1="250.161" x2="1246.912" y2="368.809"/>
		
			<line fill="none" stroke="#579FD3" stroke-width="5.2424" stroke-miterlimit="10" x1="1.524" y1="268.368" x2="1246.917" y2="381.084"/>
		
			<line fill="none" stroke="#579FD3" stroke-width="5.5455" stroke-miterlimit="10" x1="1.524" y1="286.575" x2="1246.922" y2="393.359"/>
		
			<line fill="none" stroke="#579FD3" stroke-width="5.8485" stroke-miterlimit="10" x1="1.524" y1="304.782" x2="1246.926" y2="405.633"/>
		
			<line fill="none" stroke="#579FD3" stroke-width="6.1515" stroke-miterlimit="10" x1="1.524" y1="322.989" x2="1246.931" y2="417.908"/>
		
			<line fill="none" stroke="#579FD3" stroke-width="6.4545" stroke-miterlimit="10" x1="1.524" y1="341.196" x2="1246.935" y2="430.183"/>
		
			<line fill="none" stroke="#579FD3" stroke-width="6.7576" stroke-miterlimit="10" x1="1.524" y1="359.404" x2="1246.94" y2="442.457"/>
		
			<line fill="none" stroke="#579FD3" stroke-width="7.0606" stroke-miterlimit="10" x1="1.524" y1="377.611" x2="1246.944" y2="454.732"/>
		
			<line fill="none" stroke="#579FD3" stroke-width="7.3636" stroke-miterlimit="10" x1="1.524" y1="395.818" x2="1246.949" y2="467.007"/>
		
			<line fill="none" stroke="#579FD3" stroke-width="7.6667" stroke-miterlimit="10" x1="1.524" y1="414.025" x2="1246.953" y2="479.281"/>
		
			<line fill="none" stroke="#579FD3" stroke-width="7.9697" stroke-miterlimit="10" x1="1.524" y1="432.232" x2="1246.958" y2="491.556"/>
		
			<line fill="none" stroke="#579FD3" stroke-width="8.2727" stroke-miterlimit="10" x1="1.524" y1="450.439" x2="1246.963" y2="503.831"/>
		
			<line fill="none" stroke="#579FD3" stroke-width="8.5758" stroke-miterlimit="10" x1="1.524" y1="468.646" x2="1246.967" y2="516.106"/>
		
			<line fill="none" stroke="#579FD3" stroke-width="8.8788" stroke-miterlimit="10" x1="1.524" y1="486.853" x2="1246.972" y2="528.38"/>
		
			<line fill="none" stroke="#579FD3" stroke-width="9.1818" stroke-miterlimit="10" x1="1.524" y1="505.06" x2="1246.976" y2="540.655"/>
		
			<line fill="none" stroke="#579FD3" stroke-width="9.4848" stroke-miterlimit="10" x1="1.524" y1="523.268" x2="1246.981" y2="552.93"/>
		
			<line fill="none" stroke="#579FD3" stroke-width="9.7879" stroke-miterlimit="10" x1="1.524" y1="541.475" x2="1246.985" y2="565.204"/>
		
			<line fill="none" stroke="#579FD3" stroke-width="10.0909" stroke-miterlimit="10" x1="1.524" y1="559.682" x2="1246.99" y2="577.479"/>
		
			<line fill="none" stroke="#579FD3" stroke-width="10.3939" stroke-miterlimit="10" x1="1.524" y1="577.889" x2="1246.994" y2="589.754"/>
		
			<line fill="none" stroke="#579FD3" stroke-width="10.697" stroke-miterlimit="10" x1="1.524" y1="596.096" x2="1246.999" y2="602.028"/>
		
			<line fill="none" stroke="#579FD3" stroke-width="11" stroke-miterlimit="10" x1="1.524" y1="614.303" x2="1247.004" y2="614.303"/>
	</g>
</g>
</svg>
